<svg xmlns="http://www.w3.org/2000/svg" xmlns:xlink="http://www.w3.org/1999/xlink" width="22" height="25" version="1.1" style=""><rect id="backgroundrect" width="100%" height="100%" x="0" y="0" fill="none" stroke="none"/>
    <!-- Generator: Sketch 53.2 (72643) - https://sketchapp.com -->
    <title>small_footer_logo</title>
    <desc>Created with Sketch.</desc>
    
<g class="currentLayer" style=""><title>Layer 1</title><g id="Pages" stroke="none" stroke-width="1" fill="#0be407" fill-rule="evenodd" class="" fill-opacity="1">
        <g id="deploy" fill="#0be407">
            <path d="M10.125876059604593,0.025649403953138975 C9.674629059604626,0.10530940395346987 8.814271059604607,0.6997294039538249 8.946682059604655,0.8407094039539517 C8.982754059604645,0.8774494039535057 10.065735059604663,1.5515294039532819 11.347270059604625,2.3359694039536407 C12.634743059604602,3.120339403953949 13.7839300596047,3.8312194039535825 13.904275059604629,3.9169994039539233 C14.187039059604672,4.10693940395322 14.349458059604672,4.10693940395322 14.56007805960462,3.9108794039539134 C14.710493059604687,3.7698994039537865 14.72849805960459,3.702529403953122 14.72849805960459,3.322569403953821 C14.72849805960459,2.3911094039531235 14.517941059604595,2.115329403953183 13.18226705960467,1.324779403953471 C11.100578059604686,0.09301940395380374 10.691467059604634,-0.07853059604622102 10.125876059604593,0.025649403953138975 zM7.3643160596046755,2.2930494039537734 C7.147694059604646,2.38492940395372 6.907067059604628,2.734259403953729 6.738584059604591,3.187769403953098 C6.636306059604635,3.4512594039533724 6.636306059604635,3.506409403953512 6.708513059604684,3.5615494039539044 C6.876997059604605,3.671839403953527 10.077738059604599,5.565459403953355 11.256995059604606,6.251829403953707 C12.664877059604692,7.072999403953872 12.664877059604692,7.066829403953307 12.821294059604611,7.34871940395351 C13.001780059604698,7.673539403953328 13.248472059604637,8.991069403953588 13.158198059604615,9.187199403953855 C13.122126059604625,9.266859403953276 12.887437059604622,9.55486940395349 12.640808059604637,9.818359403953764 L12.189560059604673,10.302499403953334 L12.478326059604683,10.437299403953148 C12.79122305960459,10.590509403953547 13.2424080596046,11.050119403953431 13.344748059604626,11.319729403953716 C13.404890059604668,11.491339403953134 13.410891059604637,11.485229403953781 14.018556059604634,10.82336940395362 C14.355522059604596,10.461809403953339 14.656291059604655,10.124769403953906 14.680360059604595,10.081859403953786 C14.70442905960465,10.038999403953312 14.734562059604627,9.279079403953803 14.740564059604594,8.402759403953496 C14.764633059604648,6.233429403953778 14.794703059604672,6.294679403953523 13.308613059604681,5.448989403953419 C12.887437059604622,5.210009403953336 11.780450059604618,4.560449403953498 10.841883059604697,4.0089394039532635 C8.874475059604606,2.8384394039539984 7.990048059604646,2.3481894039532563 7.731290059604589,2.268529403953835 C7.611008059604615,2.2378994039536337 7.484661059604605,2.2440194039536436 7.3643160596046755,2.2930494039537734 zM16.545490059604617,5.01394940395312 C16.53348705960468,5.8595794039538305 16.527422059604646,7.557069403953392 16.527422059604646,8.794949403953979 C16.527422059604646,10.79885940395343 16.515419059604593,11.068529403953107 16.419143059604608,11.246249403953698 C16.359002059604677,11.362649403953583 16.05817105960466,11.687459403953653 15.739272059604673,11.975469403953866 C15.089534059604603,12.569899403953968 15.0774670596046,12.576009403953321 14.235177059604666,12.36765940395344 C13.946348059604588,12.294109403953371 13.675651059604661,12.238969403953888 13.633514059604636,12.238969403953888 C13.585376059604641,12.238969403953888 13.561307059604701,12.379949403953106 13.55530505960462,12.674069403953581 C13.55530505960462,12.992709403953995 13.513169059604593,13.188829403953605 13.404890059604668,13.427809403953688 C13.320679059604686,13.60552940395337 13.248472059604637,13.777139403953697 13.248472059604637,13.807769403953898 C13.2424080596046,13.881319403953967 14.662355059604693,14.224469403953663 14.969188059604676,14.230649403953976 C15.233885059604631,14.236759403953329 17.42991705960469,12.968259403953198 17.80295605960464,12.59440940395325 C17.965374059604642,12.435089403953498 18.085720059604682,12.238969403953888 18.127856059604596,12.079649403953226 C18.20606505960461,11.767119403953984 18.29627605960468,8.739809403953586 18.29627605960468,6.576579403953474 C18.29627605960468,4.707539403953888 18.2421370596046,4.407239403953099 17.80295605960464,3.9660294039531436 C17.54426105960465,3.696349403953718 17.056878059604628,3.487999403953836 16.707972059604685,3.487999403953836 L16.56355805960459,3.487999403953836 L16.545490059604617,5.01394940395312 zM3.8626800596045996,4.241809403953994 C3.6821930596046286,4.309179403953749 1.1733270596046168,5.761579403953874 0.8183550596046415,6.00666940395331 C0.19262305960467077,6.43565940395365 -0.005930940395387553,6.803329403953285 0.00013405960464751845,7.501929403953909 C0.00013405960464751845,8.053499403953538 0.06027505960469172,8.31087940395355 0.1685540596046167,8.31087940395355 C0.2708320596046861,8.31087940395355 5.34877005960459,5.516429403953225 5.523255059604594,5.363219403953735 C5.67367005960466,5.234529403953275 5.661668059604608,4.958749403953334 5.493184059604687,4.744279403953442 C5.288629059604659,4.4746794039538145 4.656895059604608,4.192779403953864 4.271854059604607,4.198889403953217 C4.097369059604603,4.2049994039534795 3.9168820596046316,4.223409403953156 3.8626800596045996,4.241809403953994 zM19.824503059604694,4.946519403953971 C19.806436059604607,5.01394940395312 19.770364059604617,6.44177940395366 19.746295059604677,8.120869403953293 C19.70415805960465,11.148189403953438 19.70415805960465,11.178809403953892 19.83650605960463,11.295279403953828 C20.041062059604656,11.491339403953134 20.372027059604648,11.448419403953267 20.763070059604615,11.184929403953902 C21.310593059604685,10.817259403953358 21.44294205960466,10.559879403953346 21.497081059604625,9.738699403953433 C21.6114250596047,8.022809403953943 21.527152059604646,6.264049403953322 21.310593059604685,5.822839403953367 C21.148112059604614,5.504199403953862 20.799142059604605,5.185499403953145 20.43216805960469,5.0261794039533925 C19.974919059604645,4.830059403953783 19.860575059604685,4.811719403953248 19.824503059604694,4.946519403953971 zM7.225903059604661,6.454069403953326 C7.075550059604666,6.48468940395378 6.6784430596046604,6.6624194039532085 6.341539059604656,6.8584794039534245 C6.004573059604695,7.048489403953681 4.975731059604641,7.618399403953845 4.055232059604691,8.120869403953293 C1.3357450596046192,9.60389940395362 0.643871059604635,10.06351940395325 0.42731205960467383,10.523139403953792 C0.2648300596046057,10.878509403953103 0.30696705960463094,11.724209403953864 0.5055210596046891,12.036729403953359 C0.5475940596046485,12.098049403953155 1.32974405960465,11.68134940395339 3.7965370596045886,10.271869403953133 C5.91436105960463,9.064619403953657 7.117624059604623,8.415049403953162 7.274041059604656,8.396649403953234 C7.56287005960462,8.353729403953366 9.018826059604635,8.831749403953836 9.17530705960462,9.015589403953527 C9.229446059604697,9.083019403953585 9.355793059604594,9.426179403953938 9.458071059604663,9.775509403953947 L9.638557059604636,10.418959403953522 L9.915319059604599,10.235059403953528 C10.228154059604663,10.03288940395396 10.799746059604672,9.891909403953832 11.070507059604665,9.947049403953315 C11.172785059604621,9.965449403953244 11.256995059604606,9.965449403953244 11.256995059604606,9.940939403953962 C11.256995059604606,9.824469403953117 10.787680059604668,8.323109403953822 10.715536059604688,8.21281940395329 C10.643329059604639,8.096349403953354 8.7842000596047,6.925909403953483 8.18253705960467,6.619499403953341 C7.875704059604687,6.460179403953589 7.526735059604675,6.405039403953197 7.225903059604661,6.454069403953326 zM10.402639059604667,10.786629403953157 C10.101807059604653,10.92142940395388 9.385863059604617,11.724209403953864 9.295589059604595,12.024509403953743 C9.229446059604697,12.251259403953554 9.235448059604664,12.34925940395351 9.391865059604697,12.900819403953392 C9.644558059604604,13.801659403953636 9.82504505960469,13.948749403953116 10.938096059604618,14.175439403953533 C11.27506305960469,14.242869403953591 11.33520405960462,14.236759403953329 11.581896059604674,14.11417940395313 C11.948870059604701,13.93645940395345 12.622740059604666,13.152089403953141 12.682881059604597,12.839569403953647 C12.713015059604686,12.674069403953581 12.682881059604597,12.44731940395377 12.580603059604641,12.085759403953489 C12.315907059604683,11.148189403953438 12.20156305960461,11.02560940395324 11.353271059604594,10.82336940395362 C10.715536059604688,10.676279403953231 10.655332059604689,10.670159403953221 10.402639059604667,10.786629403953157 zM6.485890059604685,11.10526940395357 C6.347541059604623,11.184929403953902 5.794016059604701,11.509739403953972 5.252494059604601,11.816149403953204 C4.711035059604683,12.128679403953356 4.163511059604616,12.484119403953628 4.031163059604637,12.612809403953179 C3.6821930596046286,12.962079403953794 3.628054059604665,13.243979403953745 3.5799160596046704,15.039529403953566 C3.561911059604654,15.88521940395367 3.519775059604626,17.17823940395374 3.4897040596046054,17.901359403953393 C3.4234990596046373,19.48855940395333 3.4836400596046815,20.55482940395359 3.670190059604693,21.057369403954 C3.886749059604654,21.657899403953706 4.434272059604609,22.080709403953733 4.987797059604645,22.080709403953733 L5.234489059604698,22.086889403953137 L5.276563059604655,19.274029403953136 C5.2946300596046285,17.729749403953974 5.318699059604683,15.958769403953738 5.318699059604683,15.339829403953445 C5.318699059604683,14.438999403953858 5.336767059604654,14.175439403953533 5.420977059604638,13.997719403953852 C5.553325059604617,13.709709403953639 6.726581059604655,12.686359403953247 6.9251350596045995,12.686359403953247 C7.009345059604698,12.686359403953247 7.3643160596046755,12.759839403953265 7.713286059604684,12.845679403953909 L8.35102105960459,12.998889403953399 L8.3149490596046,12.72309940395371 C8.266811059604606,12.404459403953297 8.417226059604673,11.797749403953276 8.609716059604693,11.515859403953982 C8.754130059604677,11.30750940395319 8.820336059604642,11.344249403953654 7.869703059604603,11.117559403953237 C7.009345059604698,10.915319403953617 6.804789059604673,10.909209403953355 6.485890059604685,11.10526940395357 zM21.07590405960468,12.986599403953733 C20.17347305960459,13.648449403953236 16.44321205960466,16.179349403953893 15.895689059604592,16.510269403953316 C15.089534059604603,16.988299403953533 15.035331059604687,16.994409403953796 14.084761059604602,16.675709403953988 C13.53123605960468,16.491869403953388 13.236406059604633,16.363179403953836 13.158198059604615,16.259009403953314 C13.098056059604687,16.179349403953893 12.965708059604594,15.830079403953278 12.869432059604605,15.480749403953268 C12.76715405960465,15.131479403953563 12.676880059604628,14.831179403953684 12.664877059604692,14.818889403953108 C12.652811059604687,14.806669403953492 12.592670059604643,14.837299403953693 12.532465059604647,14.892439403953176 C12.297840059604596,15.113079403953634 11.858658059604636,15.260169403953114 11.46155105960463,15.260169403953114 C11.244929059604601,15.260169403953114 11.064443059604628,15.284619403953911 11.064443059604628,15.30913940395385 C11.064443059604628,15.523669403953136 11.581896059604674,17.037329403953663 11.696176059604682,17.15983940395381 C11.858658059604636,17.33755940395349 13.699720059604601,18.452919403953274 14.241178059604636,18.710309403953943 C14.764633059604648,18.94927940395337 15.131607059604676,18.936989403953703 15.642995059604687,18.64897940395349 C16.310864059604683,18.275199403953593 18.621177059604634,16.822799403953468 19.656020059604657,16.130319403953763 C20.91948705960465,15.278509403953649 21.497081059604625,14.812779403953755 21.755776059604614,14.438999403953858 C21.930261059604618,14.181619403953846 21.96033105960464,14.07126940395392 21.984400059604695,13.679079403953438 C22.002468059604666,13.317519403953156 21.978399059604612,13.158209403953151 21.864118059604607,12.89470940395313 C21.785847059604635,12.710879403953186 21.70763805960462,12.563779403953959 21.68356905960468,12.563779403953959 C21.66556505960466,12.569899403953968 21.3888020596047,12.759839403953265 21.07590405960468,12.986599403953733 zM1.4320210596046083,13.587199403953491 C1.028912059604636,13.78936940395397 0.7280810596046194,14.077439403953576 0.5716630596045887,14.402189403953344 C0.4333140596046407,14.69637940395387 0.42731205960467383,14.769859403953888 0.42731205960467383,16.638969403953524 C0.42124805960463624,18.924769403953178 0.44531705960469037,19.0595694039539 0.9567050596047012,19.531419403953805 C1.269603059604606,19.8133094039531 1.949474059604654,20.138129403953826 2.0396860596046054,20.040069403953567 C2.0698200596046945,20.009439403953365 2.1239590596046583,18.83281940395318 2.154030059604679,17.417219403953823 C2.190102059604669,16.001619403953555 2.232238059604697,14.641169403953427 2.244241059604633,14.39607940395399 C2.2743750596046084,13.862919403953128 2.208169059604643,13.63615940395357 1.9915480596046107,13.531989403953958 C1.7809910596046166,13.433989403954001 1.720850059604686,13.440099403953354 1.4320210596046083,13.587199403953491 zM8.302883059604596,14.16932940395327 C7.977982059604642,14.51865940395328 7.68921705960463,14.880209403953813 7.653081059604688,14.965989403953245 C7.623011059604664,15.057939403953242 7.586939059604674,15.83618940395354 7.580937059604594,16.694109403953917 C7.556868059604653,18.88184940395331 7.484661059604605,18.747049403953497 9.331724059604653,19.788799403953817 C11.323201059604685,20.910269403953862 12.79722505960467,21.71303940395319 13.801997059604673,22.22168940395386 C14.902983059604594,22.77936940395375 15.20381405960461,22.840629403953244 15.582854059604642,22.60776940395317 C15.793411059604637,22.47295940395361 16.16044805960462,22.111409403953985 16.250660059604684,21.939799403953657 C16.32286705960462,21.811109403953196 16.365004059604644,21.84172940395365 15.0774670596046,21.118619403953744 C12.640808059604637,19.745939403953344 9.939388059604653,18.189369403953606 9.752838059604642,18.048449403953782 C9.638557059604636,17.962609403953138 9.506209059604657,17.81557940395396 9.458071059604663,17.717519403953702 C9.331724059604653,17.472369403953962 9.079030059604634,16.08745940395329 9.127169059604626,15.897449403953942 C9.145173059604645,15.811679403953349 9.379862059604648,15.499149403953197 9.644558059604604,15.211139403953894 L10.131878059604674,14.684089403953294 L9.903253059604594,14.586029403953944 C9.590419059604642,14.457339403953483 9.18731005960467,14.07126940395392 9.036894059604606,13.771029403953435 C8.970751059604595,13.63615940395357 8.904546059604627,13.525869403953948 8.89854405960466,13.531989403953958 C8.892480059604623,13.531989403953958 8.621782059604698,13.820059403953564 8.302883059604596,14.16932940395327 zM19.9387840596047,17.619459403953442 C18.897940059604593,18.207769403953534 17.70668005960465,18.869619403953948 17.297569059604598,19.096379403953506 C16.882393059604624,19.323069403953923 16.509418059604627,19.555929403953996 16.455278059604666,19.617249403953792 C16.130378059604595,20.04617940395383 16.936596059604653,20.73254940395327 17.766821059604695,20.73254940395327 C18.109789059604623,20.73254940395327 18.476826059604605,20.548719403953328 20.0771970596046,19.598849403953864 C21.605360059604664,18.691899403953357 21.88818705960466,18.42222940395368 21.978399059604612,17.797179403953123 C22.032539059604687,17.43561940395375 21.978399059604612,16.70021940395327 21.88818705960466,16.614449403953586 C21.852052059604603,16.57152940395372 21.112040059604624,16.95759940395328 19.9387840596047,17.619459403953442 zM7.41245405960467,20.971529403953355 C7.274041059604656,21.026669403953747 7.147694059604646,21.36377940395323 7.147694059604646,21.682419403953645 C7.147694059604646,22.17265940395373 7.298110059604596,22.60164940395316 7.57487305960467,22.865149403953183 C7.839632059604696,23.128639403953457 9.66262605960469,24.25011940395325 10.528985059604679,24.697439403953467 C11.238928059604632,25.05899940395375 11.636035059604637,25.08962940395395 12.15949005960465,24.826129403953928 C12.586668059604676,24.60548940395347 13.013783059604634,24.237829403953583 12.92957305960465,24.152049403953242 C12.89350105960466,24.12141940395395 11.966937059604675,23.533119403953606 10.877955059604687,22.859029403953173 C9.78297105960462,22.17877940395374 8.639786059604603,21.467949403953753 8.339018059604655,21.271829403953234 C7.839632059604696,20.95318940395373 7.623011059604664,20.87963940395366 7.41245405960467,20.971529403953355 z" id="small_footer_logo" fill="#0be407"/>
        </g>
    </g></g></svg>