<?xml version="1.0" encoding="UTF-8"?>
<svg width="132px" height="36px" viewBox="0 0 132 36" version="1.1" xmlns="http://www.w3.org/2000/svg" xmlns:xlink="http://www.w3.org/1999/xlink">
    <!-- Generator: Sketch 53.2 (72643) - https://sketchapp.com -->
    <title>logo</title>
    <desc>Created with Sketch.</desc>
    <g id="Pages" stroke="none" stroke-width="1" fill="none" fill-rule="evenodd">
        <g id="deploy" transform="translate(-250.000000, -31.000000)">
            <g id="Group-3" transform="translate(200.000000, 30.000000)">
                <g id="logo" transform="translate(49.000000, 0.000000)">
                    <g id="Group" transform="translate(66.590393, 19.414023) scale(-1, 1) rotate(-180.000000) translate(-66.590393, -19.414023) translate(0.090393, 0.914023)">
                        <g transform="translate(84.954770, 18.817047) scale(-1, 1) rotate(-180.000000) translate(-84.954770, -18.817047) translate(37.454770, 0.817047)" fill="#2B303A" id="Shape">
                            <path d="M34.0460847,0.127039652 C32.8048606,0.265935716 31.9888918,0.65655811 31.268528,1.4550282 C29.9404483,2.89593815 30.0880026,5.42176853 31.5636366,6.63692681 C32.1104715,7.08833902 32.7354126,7.37478937 34.5668538,8.01704695 C36.3723204,8.65073746 37.0753678,9.02395227 37.5180306,9.59685297 C38.4033563,10.733905 38.0214833,12.4611742 36.736877,13.1121811 C36.328847,13.311867 35.1310963,13.3986314 34.5668538,13.2510772 C33.6120801,13.0166673 32.7787948,12.2268554 32.5097521,11.2807399 L32.3795142,10.8293277 L31.4073329,10.803353 C30.2963467,10.7772872 30.3397289,10.7425632 30.5653895,11.5931649 C30.9646701,13.0687989 32.301408,14.2578913 34.0286771,14.6659213 C34.7577903,14.830792 36.2420825,14.8481996 36.8756819,14.7006453 C37.5788204,14.5270253 38.4033563,14.0843624 38.8720849,13.624292 C40.3042455,12.2094478 40.3303113,9.6402352 38.9242165,8.24279862 C38.3599741,7.66989793 37.7697569,7.37478937 35.9035917,6.73244064 C33.9939531,6.06411726 33.3256297,5.7429429 32.8916251,5.24814846 C32.1017221,4.34550632 32.2146435,2.7657003 33.1172856,2.08006048 C33.7509761,1.59392426 34.9400686,1.43771176 35.8775259,1.71550389 C36.5198746,1.9064404 37.1707904,2.51397397 37.4919648,3.21711251 L37.7350329,3.76394741 L39.6533297,3.76394741 L39.5925399,3.38198323 C39.4102616,2.30572102 38.4902119,1.14260319 37.4138586,0.630492313 C36.4504266,0.170421887 35.2525848,-0.00319819236 34.0460847,0.127039652 Z M86.2124022,0.257277497 C83.7388856,0.769388377 81.837723,2.47059174 81.064863,4.87493364 C80.396813,6.97550875 80.6137242,9.60551119 81.6208118,11.4022284 C82.8274942,13.5635022 85.0148337,14.796068 87.6359957,14.8047262 C89.2072346,14.8047262 90.4130056,14.4923012 91.4984728,13.7892538 C93.4862177,12.4958982 94.5972039,10.3693484 94.5972039,7.82611043 L94.5972039,6.95810118 L90.9516379,6.95810118 L87.306072,6.95810118 L87.306072,8.32090488 L92.9822182,8.32090488 L92.9220663,8.8242664 C92.6878387,10.8120112 91.1685491,12.521964 89.1981207,13.0340748 C88.3040456,13.2597354 86.7246042,13.1642216 85.890681,12.834389 C84.2857205,12.1921314 83.2266836,10.976882 82.7746334,9.23229637 C82.5668362,8.41632757 82.5668362,6.57622814 82.7746334,5.76900869 C83.2786329,3.85071188 84.5892139,2.48799932 86.3427311,2.03658711 C88.6248554,1.4550282 90.9078911,2.31437924 91.9933584,4.16322802 L92.3405986,4.77076159 L93.2948255,4.77076159 C94.4058117,4.77076159 94.3711788,4.87493364 93.7286478,3.53828687 C92.9129524,1.81958479 91.3070806,0.647808752 89.2847029,0.257277497 C88.4170582,0.0923156362 87.0280975,0.0923156362 86.2124022,0.257277497 Z M0.515535956,0.274593935 C0.480811941,0.309317951 0.454837283,3.56426153 0.454837283,7.52234365 L0.454837283,14.7006453 L2.36438474,14.7006453 L2.36438474,11.3761626 L2.36438474,8.05177097 L9.75103052,8.05177097 L9.75103052,14.7006453 L11.5738135,14.7006453 L11.5738135,7.46155384 L11.5738135,0.213804122 L10.662422,0.213804122 L9.75103052,0.213804122 L9.75103052,6.49812189 L6.05333295,6.49812189 L2.36438474,6.49812189 L2.36438474,3.35600858 L2.36438474,0.213804122 L1.47040082,0.213804122 C0.975606382,0.213804122 0.541601753,0.239869919 0.515535956,0.274593935 Z M43.8977711,0.274593935 C43.863047,0.309317951 43.8369812,3.56426153 43.8369812,7.52234365 L43.8369812,14.7006453 L45.7466198,14.7006453 L45.7466198,11.3761626 L45.7466198,8.05177097 L53.1331745,8.05177097 L53.1331745,14.7006453 L54.9559575,14.7006453 L54.9559575,7.46155384 L54.9559575,0.213804122 L54.044566,0.213804122 L53.1331745,0.213804122 L53.1331745,6.49812189 L49.435568,6.49812189 L45.7466198,6.49812189 L45.7466198,3.35600858 L45.7466198,0.213804122 L44.8525448,0.213804122 C44.3578415,0.213804122 43.9238369,0.239869919 43.8977711,0.274593935 Z M59.2962772,0.274593935 C59.2607329,0.309317951 59.2352139,3.56426153 59.2352139,7.52234365 L59.2352139,14.7006453 L61.153693,14.7006453 L61.153693,7.46155384 L61.153693,0.213804122 L60.2505041,0.213804122 C59.7556185,0.213804122 59.3309101,0.239869919 59.2962772,0.274593935 Z M65.5803215,0.274593935 C65.5538912,0.309317951 65.5283722,3.56426153 65.5283722,7.52234365 L65.5283722,14.7006453 L67.4377374,14.7006453 L67.4377374,8.99788648 L67.4377374,3.28656054 L71.187202,8.99788648 L74.9366666,14.7006453 L76.8296267,14.7006453 L76.8031964,7.47896141 L76.776766,0.257277497 L75.8653745,0.257277497 L74.953983,0.257277497 L74.9111476,5.9252212 L74.8674008,11.5931649 L71.1352527,5.90790476 L67.4031045,0.213804122 L66.5263459,0.213804122 C66.0405742,0.213804122 65.6149544,0.239869919 65.5803215,0.274593935 Z M19.9672735,0.960324895 C19.8717596,1.22936766 18.6826672,4.38888855 17.3198635,7.99107229 C15.9658091,11.5931649 14.8548229,14.5790657 14.8548229,14.6311973 C14.8548229,14.6745795 15.2714199,14.7006453 15.8269131,14.6832378 L16.8077526,14.657172 L17.3979697,13.0166673 L17.9969362,11.3761626 L24.3766767,11.3761626 L24.9668938,13.0427331 L25.5571109,14.7006453 L26.5379504,14.7006453 C27.0761271,14.7006453 27.51879,14.6659213 27.51879,14.6224479 C27.51879,14.5790657 26.3296063,11.3935702 24.8800382,7.53966009 L22.2500357,0.534978485 L21.1998393,0.508912688 L20.1495518,0.48293803 L19.9672735,0.960324895 Z M22.5364861,6.33316003 C23.222217,8.22539105 23.7863684,9.78778948 23.7863684,9.8225135 C23.7863684,9.8485793 22.6145923,9.87455396 21.1824317,9.87455396 C19.7589294,9.87455396 18.5871533,9.8485793 18.5871533,9.81385528 C18.5871533,9.77038191 20.8525992,3.46008948 21.1129837,2.7917661 C21.19109,2.59217136 21.1651153,2.54003977 22.5364861,6.33316003 Z M4.15244371,21.089044 C2.91121964,21.2279401 2.09534197,21.6184713 1.374887,22.4170326 C0.0468984504,23.8579425 0.194452733,26.3837729 1.66999556,27.5989312 C2.21683046,28.0503434 2.8417716,28.3367026 4.67321281,28.9790513 C6.47867936,29.6126507 7.18172676,29.9859566 7.62438961,30.5587662 C8.50980644,31.6959093 8.12784227,33.4231785 6.84323596,34.0741855 C6.43529713,34.2737802 5.23745529,34.3606358 4.67321281,34.2130815 C3.71843908,33.9786716 2.88515384,33.1888598 2.61611107,32.2427442 L2.48587323,31.791332 L1.51378306,31.7653574 C0.402705689,31.7392916 0.446087925,31.7045676 0.671839598,32.5551692 C1.07112021,34.0308032 2.40776698,35.2198957 4.13512727,35.6278345 C4.86424047,35.7927964 6.34844152,35.8101128 6.98213202,35.6625585 C7.68517942,35.4890296 8.50980644,35.0462756 8.97844395,34.5862963 C10.4106957,33.1714522 10.4366703,30.6022396 9.03057554,29.2047118 C8.46633307,28.6319023 7.87611594,28.3367026 6.00995072,27.694445 C4.10040326,27.0261216 3.43198874,26.7049473 2.99798411,26.2101528 C2.20817224,25.3074195 2.32100251,23.7277047 3.22373578,23.0419737 C3.85733515,22.5559286 5.04651877,22.3997161 5.98388492,22.6774171 C6.62623364,22.8684448 7.27724059,23.4759783 7.59841495,24.1790257 L7.84139192,24.7258606 L9.75968874,24.7258606 L9.69889892,24.3439876 C9.51662063,23.2677254 8.59657091,22.1046075 7.52021756,21.5924967 C6.55678561,21.1324262 5.35894377,20.9588062 4.15244371,21.089044 Z M31.4941885,21.089044 C30.2529644,21.2279401 29.4369956,21.6184713 28.7166318,22.4170326 C27.3885521,23.8579425 27.5361064,26.3837729 29.0117404,27.5989312 C29.5585753,28.0503434 30.1835164,28.3367026 32.0149576,28.9790513 C33.8204242,29.6126507 34.5234716,29.9859566 34.9661344,30.5587662 C35.8514601,31.6959093 35.4695871,33.4231785 34.1849808,34.0741855 C33.7769508,34.2737802 32.5792001,34.3606358 32.0149576,34.2130815 C31.0601839,33.9786716 30.2268987,33.1888598 29.9578559,32.2427442 L29.827618,31.791332 L28.8554367,31.7653574 C27.7444505,31.7392916 27.7878327,31.7045676 28.0134933,32.5551692 C28.4127739,34.0308032 29.7495118,35.2198957 31.4767809,35.6278345 C32.2058941,35.7927964 33.6901863,35.8101128 34.3237857,35.6625585 C35.0269242,35.4890296 35.8514601,35.0462756 36.3201888,34.5862963 C37.7523494,33.1714522 37.7784151,30.6022396 36.3723204,29.2047118 C35.8080779,28.6319023 35.2178607,28.3367026 33.3516955,27.694445 C31.4420569,27.0261216 30.7737335,26.7049473 30.3397289,26.2101528 C29.549917,25.3074195 29.6627473,23.7277047 30.5653895,23.0419737 C31.19908,22.5559286 32.3881724,22.3997161 33.3256297,22.6774171 C33.9679785,22.8684448 34.6189854,23.4759783 34.9400686,24.1790257 L35.1831367,24.7258606 L37.1014335,24.7258606 L37.0406437,24.3439876 C36.8583654,23.2677254 35.9383157,22.1046075 34.8619624,21.5924967 C33.8985304,21.1324262 32.7006886,20.9588062 31.4941885,21.089044 Z M88.8162477,21.089044 C87.5840464,21.2279401 86.7674396,21.6184713 86.0383264,22.4170326 C84.7195429,23.8579425 84.8580744,26.3837729 86.3336172,27.5989312 C86.889566,28.0503434 87.5138692,28.3367026 89.3366522,28.9790513 C91.1512327,29.6126507 91.8539155,29.9859566 92.2968518,30.5587662 C93.1818129,31.6959093 92.7917374,33.4231785 91.5066753,34.0741855 C91.0992833,34.2737802 89.9099174,34.3606358 89.3366522,34.2130815 C88.3824253,33.9786716 87.557616,33.1888598 87.2796416,32.2427442 L87.1493126,31.791332 L86.1777693,31.7653574 C85.0749856,31.7392916 85.1187324,31.7045676 85.3438461,32.5551692 C85.734833,34.0308032 87.0800469,35.2198957 88.8071337,35.6278345 C89.5280444,35.7927964 91.0209037,35.8101128 91.6461182,35.6625585 C92.357915,35.4890296 93.1818129,35.0462756 93.6420656,34.5862963 C95.074773,33.1714522 95.100292,30.6022396 93.7031288,29.2047118 C93.1298636,28.6319023 92.5483958,28.3367026 90.6736635,27.694445 C88.7642983,27.0261216 88.1044509,26.7049473 87.6706285,26.2101528 C86.8804521,25.3074195 86.9934647,23.7277047 87.8957422,23.0419737 C88.5300707,22.5559286 89.7103227,22.3997161 90.6563471,22.6774171 C91.2988781,22.8684448 91.9496116,23.4759783 92.2622189,24.1790257 L92.5137629,24.7258606 L94.432242,24.7258606 L94.3629763,24.3439876 C94.180698,23.2677254 93.2601926,22.1046075 92.1929531,21.5924967 C91.2296123,21.1324262 90.0311325,20.9588062 88.8162477,21.089044 Z M13.3183991,21.297297 C13.3358067,21.3580868 14.4034107,23.4065303 15.6967663,25.8455962 L18.0403184,30.272407 L18.0403184,35.6625585 L19.8631014,35.6625585 L19.8631014,32.9371334 L19.8631014,30.2116172 L21.946269,26.2622844 C23.0919792,24.0922613 24.1596743,22.0611342 24.3158868,21.740051 L24.6023372,21.1758085 L23.5607078,21.1758085 L22.5191696,21.1758085 L20.7658347,24.6390962 C19.7936534,26.5399854 18.9864339,28.1023838 18.9517099,28.1023838 C18.9256441,28.1023838 18.1097665,26.5399854 17.1462434,24.6390962 L15.3842502,21.1758085 L14.3339626,21.1758085 C13.518085,21.1758085 13.2924244,21.2018743 13.3183991,21.297297 Z M40.5559719,21.9483039 L40.5559719,22.7208905 L44.5660944,22.7208905 L44.5660944,35.6625585 L46.475733,35.6625585 L46.475733,29.1960536 L46.475733,22.7208905 L50.5812783,22.7208905 L50.5552125,21.9743697 L50.5292378,21.2191907 L45.5382757,21.2018743 L40.5559719,21.1758085 L40.5559719,21.9483039 Z M54.1921203,21.2365983 C54.1573962,21.2713223 54.1314216,24.5262659 54.1314216,28.484348 L54.1314216,35.6625585 L62.1516667,35.6625585 L62.1516667,34.8900631 L62.1516667,34.1175677 L59.0966824,34.1175677 L56.0499007,34.1175677 L56.0499007,31.6090537 L56.0499007,29.1005398 L61.5182496,29.1005398 L61.5182496,28.3714266 L61.5182496,27.6423134 L58.7840752,27.6423134 L56.0499007,27.6423134 L56.0499007,25.185931 L56.0499007,22.7208905 L62.1516667,22.7208905 L62.1516667,21.9483039 L62.1516667,21.1758085 L58.2026074,21.1758085 C56.0325842,21.1758085 54.2268443,21.2018743 54.1921203,21.2365983 Z M66.3176372,21.5056411 C66.2830044,21.5403651 66.2574854,24.7432682 66.2574854,28.6144947 L66.2574854,35.6625585 L68.1668506,35.6625585 L68.1923695,30.0727211 L68.2105974,24.4828837 L70.4498863,30.0554047 L72.6891752,35.6191763 L74.3816292,35.6191763 L76.630032,30.0119313 L78.8775234,24.4134356 L78.8948399,30.0379971 L78.9212702,35.6625585 L80.7440532,35.6625585 L80.7440532,28.5537049 L80.7440532,21.4449424 L79.633067,21.470917 L78.5220807,21.4969828 L76.0658807,27.3993364 C74.7115529,30.65428 73.5741363,33.2756242 73.5395034,33.232242 C73.496668,33.197518 72.3592515,30.5327915 71.0049237,27.3298884 L68.5405211,21.4969828 L67.4632564,21.470917 C66.8644721,21.4536006 66.3531815,21.470917 66.3176372,21.5056411 Z"></path>
                        </g>
                        <g transform="translate(16.995965, 18.638972) scale(-1, 1) rotate(-180.000000) translate(-16.995965, -18.638972) translate(0.995965, 0.638972)" fill="#07E4B7" id="Shape">
                            <path d="M14.6137544,0.0531370311 C13.9627475,0.165967298 12.7215234,1.00791076 12.9125511,1.20759664 C12.9645915,1.25963709 14.52699,2.21441082 16.3758387,3.32548819 C18.2332546,4.43647442 19.8911669,5.44337974 20.064787,5.56486823 C20.4727258,5.833911 20.7070445,5.833911 21.0109025,5.55621001 C21.2279048,5.35652413 21.2538794,5.26110144 21.2538794,4.72292477 C21.2538794,3.40359444 20.9501127,3.01297205 19.0231576,1.89323646 C16.0199404,0.14855972 15.4297232,-0.0944172518 14.6137544,0.0531370311 Z M10.6296977,3.26469838 C10.3171815,3.39484508 9.97003249,3.88963952 9.72696438,4.53198825 C9.5794101,4.90520307 9.5794101,4.98330932 9.68358215,5.06141557 C9.92665026,5.21762807 14.5443064,7.8997621 16.2456009,8.8719434 C18.276728,10.0350612 18.276728,10.0263119 18.5023885,10.4255925 C18.7627731,10.8856629 19.1186714,12.7518281 18.9884336,13.0296203 C18.9363931,13.1424505 18.5978112,13.5503894 18.242004,13.9236042 L17.590997,14.6093351 L18.0075941,14.8002717 C18.4590063,15.017274 19.1099221,15.6682809 19.2575675,16.0501539 C19.344332,16.2932221 19.3529902,16.2845638 20.2296577,15.3471065 C20.7157939,14.8349957 21.1497074,14.3576088 21.1844314,14.296819 C21.2191554,14.2361203 21.2626288,13.159767 21.271287,11.9185429 C21.306011,8.84587761 21.3493933,8.93264208 19.2054359,7.73480024 C18.5978112,7.39630943 17.0007799,6.47625972 15.6467255,5.69510607 C12.808379,4.03719381 11.5324309,3.34280463 11.159125,3.22997436 C10.985596,3.18659213 10.8033177,3.19525034 10.6296977,3.26469838 Z M23.8752237,7.11860845 C23.8579072,8.31635915 23.8491579,10.720701 23.8491579,12.474036 C23.8491579,15.3123825 23.8318414,15.6943467 23.6929454,15.946073 C23.6061809,16.1109438 23.1721763,16.5710142 22.7121058,16.978953 C21.7747397,17.8208965 21.7573321,17.8295547 20.5421738,17.5344461 C20.1254856,17.4302741 19.7349544,17.3521678 19.6741646,17.3521678 C19.6047165,17.3521678 19.5699925,17.5518537 19.5613343,17.9684508 C19.5613343,18.4197718 19.5005445,18.697564 19.344332,19.0360548 C19.2228435,19.2877811 19.1186714,19.5308492 19.1186714,19.5742314 C19.1099221,19.6784035 21.1584567,20.1644486 21.6011196,20.1731979 C21.9829926,20.1818561 25.1511717,18.385139 25.6893484,17.8556205 C25.9236672,17.62996 26.0972873,17.3521678 26.1580771,17.1265073 C26.2709073,16.6838445 26.401054,12.3959298 26.401054,9.33192269 C26.401054,6.68460382 26.3229478,6.25925741 25.6893484,5.63431626 C25.3161336,5.25235209 24.6129951,4.95724352 24.1096335,4.95724352 L23.9012894,4.95724352 L23.8752237,7.11860845 Z M5.57794574,6.02493865 C5.3175612,6.12036134 1.69806102,8.17755422 1.18595014,8.52470324 C0.283216862,9.13232795 -0.00323348404,9.65309705 0.0055158743,10.6425948 C0.0055158743,11.4238396 0.0922803445,11.7883962 0.248492847,11.7883962 C0.396047129,11.7883962 7.72190309,7.83031406 7.97362943,7.61331175 C8.19063174,7.43103345 8.1733153,7.04041106 7.93024719,6.73664427 C7.63513862,6.35477124 6.72374713,5.95549062 6.16825402,5.96414884 C5.91652768,5.97280706 5.65614314,5.99887286 5.57794574,6.02493865 Z M28.6058012,7.02309462 C28.5797354,7.11860845 28.5276949,9.14098617 28.4929709,11.5192623 C28.4321811,15.807177 28.4321811,15.8505592 28.6231176,16.0155211 C28.9182262,16.2932221 29.3957042,16.2324322 29.9598555,15.8592174 C30.7497585,15.3384483 30.9406951,14.9738917 31.0188013,13.8107739 C31.1837632,11.3803662 31.0621836,8.88925984 30.7497585,8.26431869 C30.5153487,7.81299763 30.011896,7.36158542 29.4824687,7.13592488 C28.8228035,6.85813276 28.6578417,6.8321581 28.6058012,7.02309462 Z M10.4300118,9.15839375 C10.2131006,9.20177598 9.64019991,9.45350231 9.15415483,9.7312033 C8.6680186,10.0003372 7.18372642,10.8075567 5.85573787,11.5192623 C1.93237977,13.6198374 0.934223806,14.2708443 0.621798802,14.9218513 C0.38738891,15.4252128 0.448178723,16.6230546 0.734629069,17.0657175 C0.795327743,17.1525731 1.92372155,16.562356 5.48252306,14.5659529 C8.5378719,12.8560002 10.2737993,11.9359505 10.4994598,11.9098847 C10.916148,11.8490949 13.016632,12.5261676 13.2423837,12.7865521 C13.3204899,12.882066 13.5027682,13.3681111 13.6503225,13.8629055 L13.910707,14.774297 L14.3099876,14.5138213 C14.7613087,14.2274621 15.5859357,14.0277762 15.9765581,14.1058825 C16.1241124,14.1319483 16.2456009,14.1319483 16.2456009,14.0972243 C16.2456009,13.9322624 15.5685282,11.8057126 15.4644473,11.6495001 C15.3602752,11.4845383 12.6781412,9.82671713 11.8101319,9.3927125 C11.3674691,9.16705197 10.8640164,9.08894572 10.4300118,9.15839375 Z M15.013035,15.2950661 C14.5790304,15.4860026 13.5461504,16.6230546 13.4159126,17.048401 C13.3204899,17.3695754 13.3291481,17.5083803 13.5548087,18.2896251 C13.9193653,19.5655732 14.1797498,19.7739173 15.7855305,20.0950005 C16.2716667,20.1905144 16.3584312,20.1818561 16.7143295,20.0082361 C17.2437569,19.7565097 18.2159382,18.6455235 18.3027026,18.2028607 C18.346176,17.9684508 18.3027026,17.6472764 18.1551484,17.1351655 C17.7732753,15.807177 17.6083135,15.6335569 16.384497,15.3471065 C15.4644473,15.1387625 15.3775916,15.1301042 15.013035,15.2950661 Z M9.36240778,15.7463872 C9.16281305,15.8592174 8.36425182,16.3192879 7.58300703,16.7532925 C6.80185338,17.1959553 6.01195037,17.699408 5.82101386,17.8816863 C5.3175612,18.3763896 5.23945494,18.7756702 5.17000691,21.3189082 C5.14403225,22.51675 5.08324244,24.3481912 5.03986021,25.372413 C4.94434638,27.6205424 5.03111085,29.1308092 5.30024476,29.842606 C5.61266976,30.6932077 6.40257277,31.292083 7.201134,31.292083 L7.55703237,31.3008324 L7.61773105,27.3166845 C7.64379684,25.1293449 7.67852086,22.6209221 7.67852086,21.7442546 C7.67852086,20.4683065 7.70458666,20.0950005 7.82607514,19.8432742 C8.01701166,19.4353354 9.70964794,17.9858583 9.99609829,17.9858583 C10.1175868,17.9858583 10.6296977,18.0899392 11.1331503,18.2115189 L12.0532,18.4285212 L12.0011596,18.0378988 C11.9317115,17.5865777 12.1487139,16.7272267 12.4264148,16.3279461 C12.6347589,16.0328375 12.7302728,16.084878 11.3588109,15.7637947 C10.1175868,15.4773444 9.82247821,15.4686862 9.36240778,15.7463872 Z M30.4111766,18.4111136 C29.1092539,19.3485709 23.7276694,22.9333471 22.9377664,23.4020757 C21.7747397,24.0791484 21.6965423,24.0878067 20.3251715,23.6363945 C19.5266103,23.3760099 19.1012639,23.1937316 18.9884336,23.0461773 C18.9016691,22.9333471 18.7107326,22.4386438 18.5718365,21.9438493 C18.4242823,21.449146 18.2940444,21.0237996 18.276728,21.006392 C18.2593204,20.9890756 18.1725559,21.0324578 18.0857003,21.1105641 C17.7472095,21.4230802 17.1136102,21.6314243 16.5407095,21.6314243 C16.2281933,21.6314243 15.9678088,21.6660572 15.9678088,21.7007812 C15.9678088,22.0046391 16.7143295,24.1485965 16.8792003,24.3221254 C17.1136102,24.5738518 19.7696784,26.1536578 20.550832,26.5182144 C21.306011,26.8567052 21.8354383,26.8392976 22.5732098,26.4313588 C23.5367328,25.9019314 26.8697827,23.8447386 28.3627331,22.863899 C30.1855161,21.657399 31.0188013,20.9977338 31.3920161,20.4683065 C31.6437425,20.1037499 31.6871247,19.9474463 31.7218487,19.3919531 C31.7479145,18.8798423 31.7131905,18.6541817 31.5483198,18.2809669 C31.4353984,18.0205824 31.3225681,17.8122383 31.2878441,17.8122383 C31.2618694,17.8208965 30.8625888,18.0899392 30.4111766,18.4111136 Z M2.07127583,19.2618064 C1.48971692,19.5481656 1.05571229,19.9561956 0.830051759,20.4161749 C0.630457022,20.8328631 0.621798802,20.936944 0.621798802,23.584354 C0.613049444,26.8219811 0.64777346,27.0129177 1.38554487,27.681241 C1.83695708,28.0805217 2.81779661,28.5405921 2.94794331,28.401696 C2.99141669,28.3583138 3.06952294,26.6917433 3.11290517,24.686682 C3.16494563,22.6816207 3.22573544,20.7546657 3.24305188,20.4075167 C3.28652525,19.6523377 3.19101142,19.3311633 2.87849528,19.183609 C2.57472849,19.0448041 2.48796402,19.0534623 2.07127583,19.2618064 Z M11.983752,20.0863423 C11.5150234,20.5811368 11.0984263,21.0932476 11.0462947,21.2147361 C11.0029125,21.344974 10.950872,22.447302 10.9422138,23.6624603 C10.9074898,26.7611913 10.8033177,26.5702548 13.4680442,28.0457976 C16.3411147,29.6342619 18.4676645,30.7713139 19.9172327,31.4917689 C21.5056058,32.2816719 21.9396104,32.3684364 22.4864453,32.0386038 C22.7902121,31.8476673 23.3197305,31.3355564 23.4498772,31.0924883 C23.5540493,30.91021 23.6148391,30.9535922 21.7573321,29.9293704 C18.242004,27.985099 14.3447117,25.7803518 14.0755778,25.5807571 C13.910707,25.4591774 13.7197705,25.2509245 13.6503225,25.1120284 C13.4680442,24.7647883 13.1034876,22.8032004 13.1729356,22.5340664 C13.1989103,22.412578 13.5374922,21.9699151 13.9193653,21.5619763 L14.6224126,20.8154555 L14.2925801,20.6765594 C13.841259,20.4942811 13.2597001,19.9474463 13.0426978,19.522191 C12.9472751,19.3311633 12.8517613,19.1749508 12.843103,19.183609 C12.8343537,19.183609 12.4438224,19.591639 11.983752,20.0863423 Z M28.7706719,24.9731324 C27.2690633,25.8064176 25.5504524,26.7438749 24.9602352,27.0650493 C24.3612687,27.3861325 23.8231832,27.7159651 23.7450769,27.8028207 C23.2763483,28.4103542 24.4394661,29.3825355 25.6372168,29.3825355 C26.1320113,29.3825355 26.6615297,29.122151 28.9703578,27.7767549 C31.1750138,26.4921486 31.5830438,26.1101844 31.7131905,25.2248587 C31.7912967,24.7127478 31.7131905,23.6711185 31.5830438,23.54963 C31.5309122,23.4888402 30.4633082,24.0356751 28.7706719,24.9731324 Z M10.6991457,29.7210264 C10.4994598,29.7991326 10.3171815,30.2766106 10.3171815,30.7279317 C10.3171815,31.4223209 10.5341838,32.0299456 10.9334644,32.4031604 C11.3154286,32.7763752 13.945431,34.3648394 15.1953133,34.9984388 C16.2195351,35.5105497 16.7924358,35.5539319 17.5476148,35.1807171 C18.1638977,34.868201 18.7800895,34.3474319 18.658601,34.2259434 C18.6065606,34.1825611 17.2698227,33.3492759 15.698766,32.3945022 C14.1190511,31.4309791 12.4697971,30.4241649 12.0358836,30.1463728 C11.3154286,29.6950517 11.0029125,29.5908796 10.6991457,29.7210264 Z"></path>
                        </g>
                    </g>
                </g>
            </g>
        </g>
    </g>
</svg>